PathFileType	4	(X/Y/Z)	D:\MotionData\NordSprintingStudy\BertecTesting2023-09-14\Generated_files\Trimmed_running_0600000001-Feet.trc
DataRate	CameraRate	NumFrames	NumMarkers	Units	OrigDataRate	OrigDataStartFrame	OrigNumFrames
200.00	200.00	      31	10	mm	200.00	1	      1900
Frame#	Time	r_calc			r_toe			r_meta			r_ankle			r_mankle			l_calc			l_toe			l_meta			l_ankle			l_mankle			
		X1	Y1	Z1	X2	Y2	Z2	X3	Y3	Z3	X4	Y4	Z4	X5	Y5	Z5	X6	Y6	Z6	X7	Y7	Z7	X8	Y8	Z8	X9	Y9	Z9	X10	Y10	Z10	

1	0.000	1130.38232	257.94638	151.71962	1339.58325	204.00948	142.99986	1290.72961	166.48604	121.16410	1189.53223	190.47119	194.07964	1219.21472	271.89365	207.78749	399.14835	334.89008	351.91592	508.30209	356.18234	167.45825	463.39359	403.42087	200.75375	466.59158	391.51242	328.44559	492.22928	313.90851	308.42108	
2	0.005	1151.84912	261.22922	140.21985	1360.75586	205.81764	141.83427	1313.04016	169.27339	116.36713	1208.10120	192.44905	184.22070	1237.39404	273.62656	200.54903	392.15399	334.60611	374.19180	491.35345	356.92493	184.41786	448.28287	404.05893	220.44649	458.04099	391.94864	347.61307	483.49371	313.98663	326.20544	
3	0.010	1172.53284	264.17255	130.30611	1380.52185	207.77528	141.52931	1334.22070	171.94543	112.67072	1225.11047	194.18805	175.00458	1254.74353	274.87177	194.48334	386.39557	334.01587	397.33441	475.06049	357.69684	202.10509	434.05920	404.45737	240.76077	450.27432	391.92944	366.52170	476.03030	315.89926	344.74850	
4	0.015	1191.67847	267.00433	122.05272	1398.89001	210.11197	142.52892	1353.81335	174.93823	109.88701	1242.01294	196.21994	168.09212	1270.51208	276.18729	189.78352	382.17892	333.86514	420.53873	460.54037	358.49606	221.01387	420.89578	404.85864	261.91763	444.04224	392.65048	386.68542	468.18497	314.00916	363.47922	
5	0.020	1209.01807	269.07288	115.54469	1414.84070	212.16457	143.98923	1371.79260	177.53146	108.40513	1256.94214	197.46762	162.00873	1284.49915	275.83606	185.81184	379.62164	333.72638	443.86038	447.33795	359.04239	241.00375	409.68399	405.30685	283.74207	439.19724	393.53146	407.01309	462.56790	314.24414	382.26874	
6	0.025	1224.08997	270.45090	110.17373	1428.53467	214.46304	146.19534	1387.86194	180.66966	107.32484	1270.43335	198.39899	157.71027	1296.58496	276.40015	183.56894	378.69562	333.95059	467.65683	435.74728	359.80124	261.08533	400.19653	405.77423	305.99875	436.19351	394.43805	427.23096	458.49094	315.04675	401.24728	
7	0.030	1236.70850	271.22794	106.03211	1440.55017	216.98050	148.83981	1401.63269	183.49992	107.22910	1281.49316	198.63507	154.43988	1306.42090	276.64948	182.41495	379.81561	334.28281	490.99860	426.23642	360.55215	282.01184	392.71783	406.33142	328.75156	434.47260	394.96426	448.21307	455.76697	314.95569	420.78851	
8	0.035	1246.81299	271.31952	102.80347	1449.65454	219.12976	150.89438	1412.67981	186.05168	107.40824	1290.55884	199.18782	152.24588	1313.81628	276.71472	181.50238	382.74991	334.68994	514.47467	418.14105	360.99072	303.12161	387.94745	408.94431	350.60638	434.76468	395.91760	469.13461	454.91791	315.83011	440.19662	
9	0.040	1254.18713	271.18073	100.38741	1456.52576	221.64131	152.71770	1421.02893	188.49513	107.59673	1297.07874	199.37762	150.31593	1319.10413	276.77325	180.81581	387.32620	336.15497	538.27820	411.89972	361.98312	324.51569	383.60950	407.88977	374.79797	437.05606	394.77432	488.40216	455.66321	316.12833	459.33405	
10	0.045	1258.71057	271.48419	98.35493	1460.51831	223.60191	153.13284	1425.46423	190.59445	107.03519	1300.78906	199.52417	148.05870	1322.35413	277.00595	179.81586	393.68781	336.86316	560.24713	407.70950	361.90329	346.32596	382.01132	408.55823	397.63977	441.11169	395.86438	507.97794	457.83347	316.69794	478.28058	
11	0.050	1260.46912	271.91296	96.56314	1462.17786	225.05769	152.44539	1427.34192	192.31580	105.61697	1302.29858	199.80695	146.04382	1323.34656	277.45032	178.35556	401.99127	337.35922	582.20911	405.15747	362.24719	367.66876	382.49591	409.13889	419.87289	446.76483	396.43082	526.88879	461.78278	317.04620	496.68481	
12	0.055	1259.56384	272.93686	94.73361	1461.44299	226.60127	150.52211	1427.13696	193.95238	103.36819	1301.36938	200.52203	143.87433	1322.18762	278.12082	176.62692	411.83041	337.48495	602.59796	404.47983	363.46045	388.36649	385.27133	410.31702	441.27478	453.71027	398.31647	547.20453	466.92542	317.91272	514.43304	
13	0.060	1256.33655	274.29129	92.25208	1458.42664	227.77036	147.33546	1424.67188	195.54427	100.09095	1298.13867	201.48521	141.19356	1319.06250	279.08661	174.21327	422.77963	338.16611	622.24329	405.23666	364.26578	408.08151	387.91098	410.71606	462.95428	461.73059	397.83041	563.63452	473.67923	318.55081	531.36932	
14	0.065	1250.91272	275.89645	89.39378	1453.21167	228.74586	142.36636	1419.39905	196.74754	95.83785	1292.75415	202.91078	137.95119	1314.06458	280.29202	170.90147	435.24509	338.95850	640.74219	407.97037	365.21005	427.60605	393.00378	411.65146	483.33615	474.19101	398.89767	579.34991	481.84039	319.37686	547.55322	
15	0.070	1242.71143	278.07040	85.63657	1446.09180	229.68414	136.53519	1411.26538	197.88187	90.31240	1285.23376	204.10374	134.31683	1306.99097	281.57886	166.68752	448.89642	339.50735	657.99994	412.17258	365.41742	446.74768	399.48016	412.06635	503.53107	481.86465	399.37323	595.79102	491.15515	320.29556	562.63684	
16	0.075	1232.39758	278.25589	82.32220	1437.13477	230.71538	129.61848	1401.04138	198.89352	84.07061	1275.92090	205.03093	130.39980	1298.28613	283.07367	162.12334	463.49268	340.24811	674.10205	418.21680	367.10559	464.63617	407.78830	413.30734	521.18427	493.93973	399.77075	611.27283	501.76529	321.11652	576.66223	
17	0.080	1220.13220	279.30267	78.61429	1425.14917	231.64886	120.56953	1388.57495	199.57635	76.71605	1264.74414	206.56721	125.93443	1287.83276	284.39423	157.08229	479.26025	341.23645	688.76196	425.18652	368.54816	480.87259	417.08820	414.31509	538.46222	507.32172	401.19763	623.40344	513.40186	322.11395	589.45367	
18	0.085	1205.74121	280.17056	74.88169	1412.15576	232.93236	111.79758	1374.18066	200.62796	68.72858	1251.73584	207.59862	121.19962	1275.31006	286.18878	151.24825	495.81378	342.28778	702.08459	434.00079	369.68637	496.38235	427.82132	415.31448	554.28876	521.23914	402.23416	635.33875	526.21741	322.27563	601.39569	
19	0.090	1189.75952	280.47501	71.17757	1397.30029	233.83949	101.84566	1358.19397	201.79288	60.34681	1237.36951	208.51540	116.28303	1261.55371	286.54688	145.48679	513.05658	343.54547	713.82129	443.57016	369.62042	510.68356	439.60806	416.80383	568.08783	535.72479	403.43161	645.55072	539.74243	323.78964	611.73615	
20	0.095	1172.38098	280.99142	67.37986	1381.15613	235.61343	91.46548	1340.79407	202.92163	51.53859	1221.79480	209.21846	111.35125	1246.51453	287.47849	139.52689	530.88763	344.92865	724.17328	454.57846	370.77878	523.25568	452.66354	417.58536	580.96417	551.42206	404.67377	655.17694	554.11646	324.49756	621.10272	
21	0.100	1153.80054	279.78159	64.03287	1363.63098	237.46382	80.66447	1322.48950	203.84258	42.80791	1205.48328	209.43182	106.46465	1230.26526	289.07578	133.65007	549.11761	346.63986	733.05273	467.13568	373.24966	534.34021	466.52487	418.60681	592.64990	566.46741	405.68793	662.49249	569.24158	325.58475	629.24335	
22	0.105	1133.38550	279.86948	61.14434	1346.69177	240.75392	71.67878	1302.93140	201.46342	40.60726	1188.31213	209.42747	101.32124	1212.65991	289.60941	127.13021	567.57623	348.58597	740.27600	479.67557	375.46176	543.48669	481.24783	419.94214	601.91986	584.06628	407.07715	668.64972	584.77490	327.06503	635.79352	
23	0.110	1112.04724	277.32828	58.92596	1328.09106	246.80821	66.24585	1284.12170	204.24516	41.74685	1171.09192	211.31032	97.34896	1193.34106	292.35419	121.93029	586.37653	350.17947	746.42938	493.26129	373.31821	551.79333	496.50980	421.03351	609.60004	600.75354	408.71017	673.47229	600.82922	327.77673	641.12860	
24	0.115	1089.61414	277.73303	56.02398	1306.09448	254.41254	61.00146	1263.41406	207.85606	43.33763	1153.94556	215.60155	95.46107	1170.67993	298.07495	118.26328	604.88324	352.36029	750.90771	507.77060	374.08792	557.91272	512.28412	422.14407	615.22394	617.93311	410.07544	677.20233	617.19952	329.19556	645.17377	
25	0.120	1067.93567	283.34540	53.15685	1283.94727	259.06274	57.06493	1240.83374	211.23322	44.08699	1134.85693	221.69049	95.59114	1147.16614	304.62213	115.15656	622.89838	354.50858	753.88092	522.70990	374.63037	562.25659	528.22113	423.25275	618.62927	634.62500	411.50266	678.77588	633.75238	330.93787	647.99121	
26	0.125	1045.97009	289.64532	52.06125	1263.34119	260.12061	56.72772	1219.12329	213.30989	44.28670	1113.33862	228.02721	97.31487	1126.71655	310.62967	112.52228	640.57031	356.48618	755.34100	538.13177	375.26196	564.77246	544.30396	423.77628	621.13770	651.49475	412.98499	679.43201	650.51074	331.26984	649.35883	
27	0.130	1025.54712	293.86444	53.15947	1243.80957	261.45190	54.57957	1197.45825	215.54993	43.94717	1092.24756	233.39938	98.55255	1109.84924	317.11981	111.60009	657.33618	358.33759	755.61914	553.72540	375.65762	565.39636	560.29907	424.75754	621.38098	667.83252	414.27167	678.68750	667.06848	332.65948	649.34070	
28	0.135	1004.07666	297.78476	53.23578	1221.76929	262.26556	54.75511	1175.73792	217.31895	44.62636	1073.36682	238.52339	99.73333	1093.37842	322.59064	110.76966	672.93542	359.87921	754.62079	569.70551	376.19580	564.17841	576.08459	425.97998	619.44348	683.86365	415.41446	677.06396	683.30511	333.40430	648.18225	
29	0.140	982.70367	300.72229	54.21407	1200.00500	263.70123	54.02087	1153.39490	217.93280	45.02710	1053.01294	241.10216	100.46458	1073.81140	326.57306	109.69109	687.28467	361.50943	752.47900	585.40576	376.17068	561.01733	591.59442	426.54388	616.09857	699.10010	416.38229	674.55768	699.12817	334.91946	645.90094	
30	0.145	960.42261	302.82513	54.71010	1177.74304	265.04022	53.84631	1131.39539	221.03766	44.75365	1030.95105	243.19731	101.09074	1051.44250	328.50311	109.46982	699.96899	362.29639	749.19189	601.30750	376.70847	556.15375	606.19830	427.17102	611.31042	712.28192	416.44049	670.59058	714.01892	335.70016	642.23883	
31	0.150	938.16779	302.36475	54.84933	1155.42468	264.96796	53.72937	1108.85083	221.26642	44.75039	1008.55652	243.38675	101.72640	1028.95422	329.11768	110.16815	711.19897	363.25006	744.65808	616.48749	377.36966	549.54706	620.37048	427.45007	604.83270	726.05798	417.75433	666.48083	728.10553	336.73624	637.69128	
